<svg id="visual" viewBox="0 0 900 600" width="900" height="600" xmlns="http://www.w3.org/2000/svg" xmlns:xlink="http://www.w3.org/1999/xlink" version="1.1"><rect x="0" y="0" width="900" height="600" fill="#FFFFFF"></rect><defs><linearGradient id="grad1_0" x1="33.3%" y1="0%" x2="100%" y2="100%"><stop offset="20%" stop-color="#ffffff" stop-opacity="1"></stop><stop offset="80%" stop-color="#ffffff" stop-opacity="1"></stop></linearGradient></defs><defs><linearGradient id="grad2_0" x1="0%" y1="0%" x2="66.7%" y2="100%"><stop offset="20%" stop-color="#ffffff" stop-opacity="1"></stop><stop offset="80%" stop-color="#ffffff" stop-opacity="1"></stop></linearGradient></defs><g transform="translate(900, 0)"><path d="M0 297.5C-36.1 287.9 -72.3 278.4 -110.2 266.1C-148.2 253.8 -187.9 238.6 -210.3 210.3C-232.7 182 -237.8 140.6 -249.4 103.3C-261.1 66.1 -279.3 33 -297.5 0L0 0Z" fill="#f25c5c"></path></g><g transform="translate(0, 600)"><path d="M0 -297.5C39.4 -293.8 78.7 -290.2 113.8 -274.8C148.9 -259.4 179.8 -232.3 202.2 -202.2C224.7 -172.1 238.7 -139.1 253.1 -104.9C267.6 -70.7 282.5 -35.3 297.5 0L0 0Z" fill="#f25c5c"></path></g></svg>